<svg width="14" height="12" viewBox="0 0 14 12" fill="none" xmlns="http://www.w3.org/2000/svg">
<path d="M0.699976 11.2998C0.516643 11.1165 0.424976 10.8831 0.424976 10.5998C0.424976 10.3165 0.516643 10.0831 0.699976 9.8998L4.57498 5.9998L0.699976 2.0998C0.516643 1.91647 0.420643 1.68747 0.411976 1.4128C0.40331 1.13814 0.499309 0.900471 0.699976 0.699804C0.883309 0.516471 1.11664 0.424805 1.39998 0.424805C1.68331 0.424805 1.91664 0.516471 2.09998 0.699804L6.69998 5.2998C6.79998 5.3998 6.87098 5.50814 6.91298 5.6248C6.95498 5.74147 6.97564 5.86647 6.97498 5.9998C6.97498 6.13314 6.95431 6.25814 6.91298 6.3748C6.87164 6.49147 6.80064 6.5998 6.69998 6.6998L2.09998 11.2998C1.91664 11.4831 1.68764 11.5791 1.41298 11.5878C1.13831 11.5965 0.900642 11.5005 0.699976 11.2998ZM7.29998 11.2998C7.11664 11.1165 7.02498 10.8831 7.02498 10.5998C7.02498 10.3165 7.11664 10.0831 7.29998 9.8998L11.175 5.9998L7.29998 2.0998C7.11664 1.91647 7.02064 1.68747 7.01198 1.4128C7.00331 1.13814 7.09931 0.900471 7.29998 0.699804C7.48331 0.516471 7.71664 0.424805 7.99998 0.424805C8.28331 0.424805 8.51664 0.516471 8.69998 0.699804L13.3 5.2998C13.4 5.3998 13.471 5.50814 13.513 5.6248C13.555 5.74147 13.5756 5.86647 13.575 5.9998C13.575 6.13314 13.554 6.25814 13.512 6.3748C13.47 6.49147 13.3993 6.5998 13.3 6.6998L8.69998 11.2998C8.51664 11.4831 8.28764 11.5791 8.01298 11.5878C7.73831 11.5965 7.50064 11.5005 7.29998 11.2998Z" fill="white"/>
</svg>
