<svg width="31" height="25" viewBox="0 0 31 25" fill="none" xmlns="http://www.w3.org/2000/svg">
<g clip-path="url(#clip0_1_407)">
<path d="M15.402 2.32844C14.9261 1.14012 13.7667 -0.143244 11.5951 0.0330554C8.82894 0.333771 7.96691 2.98471 8.38503 4.56618C7.28328 3.82016 5.40993 3.49213 3.7748 4.89277C1.66356 7.00911 2.79284 9.8712 3.95345 10.5577C2.67435 10.4393 0.652763 11.3036 0.205545 13.5645C-0.270207 16.3716 1.8697 18.0081 3.95345 18.0081H27.0599C29.4694 18.0081 30.8063 15.9235 30.6563 13.9576C30.42 11.3919 28.0721 10.4075 26.7914 10.6185C27.8614 10.0215 29.2904 7.21725 27.1175 5.0127C25.3926 3.37203 23.1938 3.96902 22.4206 4.68459C22.8374 3.31401 22.1539 0.48084 19.3563 0.0327503C19.1629 0.0110995 18.9767 -0.000488281 18.7993 -0.000488281C16.6637 -0.00018334 15.7034 1.56094 15.402 2.32844Z" fill="white"/>
<path d="M4.15949 5.33957C2.9396 6.44389 2.4956 8.94615 4.69471 10.4089L13.4679 16.428L9.21407 6.68236C8.32268 4.38262 5.88411 3.88112 4.15949 5.33957Z" fill="#F37021"/>
<path d="M11.7116 0.601561C10.2855 0.630617 8.14409 2.32884 9.09707 4.92206L13.4967 15.2982L15.0427 4.38449C15.4005 1.67269 13.3483 0.420861 11.7116 0.601561Z" fill="#CC004C"/>
<path d="M15.7292 3.96814H16.5612C16.5612 3.96814 17.0054 3.96814 17.0659 4.17773C16.7385 4.44507 15.8474 4.47857 15.9657 5.90661L17.3643 15.2966L21.7338 4.89325C22.6276 2.57038 20.7516 0.630431 19.0874 0.571142C19.0097 0.565565 18.9317 0.561035 18.8509 0.561035C17.3573 0.560992 15.6456 1.64654 15.7292 3.96814Z" fill="#6460AA"/>
<path d="M21.558 6.77088L17.4251 16.3996L26.1957 10.3488C28.2175 8.91475 27.8914 6.62211 26.7597 5.48886C26.2852 4.95548 25.4141 4.54346 24.4913 4.54346C23.4011 4.54324 22.2343 5.1215 21.558 6.77088Z" fill="#0089D0"/>
<path d="M25.2137 11.7189L16.977 17.4722H27.1187C29.1994 17.4722 30.5365 15.3269 29.9421 13.3582C29.544 12.1207 28.3661 11.1493 26.999 11.1479C26.4235 11.1482 25.8133 11.3215 25.2137 11.7189Z" fill="#0DB14B"/>
<path d="M3.92312 17.4723H13.9152L5.67645 11.719C3.77309 10.4961 1.63293 11.2117 0.860293 13.2411C0.205366 15.5642 1.84059 17.4723 3.92312 17.4723Z" fill="#FCB711"/>
<path d="M0.170536 21.636C0.170536 22.6159 0.97153 24.3994 4.03 24.3994C6.84984 24.3994 7.74044 23.1055 7.74044 22.5122H5.55737C5.55737 22.5122 5.45369 23.296 4.2222 23.296C2.98994 23.296 2.65668 22.2674 2.65668 21.6727C2.65668 21.0802 2.98994 20.1071 4.2222 20.1071C5.45369 20.1071 5.55737 20.7896 5.55737 20.7896H7.74044C7.74044 20.1956 7.087 18.9199 4.03 18.9199C0.97153 18.9199 0.170536 20.8194 0.170536 21.636Z" fill="#292526"/>
<path d="M23.0654 21.636C23.0654 22.6159 23.8672 24.3994 26.9249 24.3994C29.7445 24.3994 30.6354 23.1055 30.6354 22.5122H28.4539C28.4539 22.5122 28.3497 23.296 27.1179 23.296C25.8855 23.296 25.5519 22.2674 25.5519 21.6727C25.5519 21.0802 25.8855 20.1071 27.1179 20.1071C28.3497 20.1071 28.4539 20.7896 28.4539 20.7896H30.6354C30.6354 20.1956 29.9827 18.9199 26.9249 18.9199C23.8673 18.9199 23.0654 20.8194 23.0654 21.636Z" fill="#292526"/>
<path d="M13.7069 19.0112V22.3282L11.1662 19.0112H8.30822V24.265H10.2676V20.9099L12.7637 24.265H15.6663V19.0112H13.7069Z" fill="#292526"/>
<path d="M19.9855 23.0098V23.0168H18.3529V22.0521H19.9855V22.0552C20.3341 22.0552 20.6158 22.2695 20.6158 22.5333C20.6158 22.7965 20.3341 23.0098 19.9855 23.0098ZM18.3679 20.033H19.9409V20.0353C20.2075 20.0353 20.4236 20.2106 20.4236 20.4264C20.4236 20.6431 20.2075 20.8169 19.9409 20.8169V20.8192H18.3679V20.033ZM21.5889 21.4719C21.9456 21.4719 22.6914 21.0578 22.6914 20.2557C22.6914 19.1134 20.5643 19.0112 20.238 19.0112H16.319V24.265H20.238C22.1229 24.265 22.8801 23.6695 22.8801 22.6751C22.8801 21.6808 21.5889 21.4719 21.5889 21.4719Z" fill="#292526"/>
</g>
<defs>
<clipPath id="clip0_1_407">
<rect width="30.5292" height="24.3993" fill="white" transform="translate(0.138382)"/>
</clipPath>
</defs>
</svg>
