<svg width="52" height="25" viewBox="0 0 52 25" fill="none" xmlns="http://www.w3.org/2000/svg">
<g clip-path="url(#clip0_1_405)">
<path d="M22.0006 0.000473508C19.7235 -0.0338903 17.7024 1.80538 17.7024 4.46716V16.4533C17.7047 16.8848 17.3821 17.2675 16.9125 17.2675H13.1622C5.04679 17.2771 5.77197 6.90267 12.6797 6.89294C15.7506 6.88859 16.8239 6.89294 16.8239 6.89294V3.98621H12.5324C9.84322 3.99055 7.80736 5.01363 6.43795 6.53892C5.06851 8.06424 4.36741 10.0956 4.3685 12.1143C4.36957 14.0577 5.03306 16.0747 6.419 17.6033C7.80494 19.132 9.91223 20.1774 12.8247 20.1774H19.9034C20.3126 20.1774 20.6596 19.8311 20.6596 19.4273V4.78342C20.6551 4.01764 21.0526 3.402 21.6919 3.19822H21.692C22.3121 3.0011 22.9931 3.25783 23.4037 3.84115L23.4055 3.84376L23.4071 3.84646C24.4019 5.47496 26.8876 9.46988 29.1328 13.071C30.2554 14.8716 31.318 16.5739 32.1042 17.8331C32.4973 18.4626 32.8214 18.9814 33.0493 19.3463C33.2754 19.7084 33.4011 19.9095 33.4151 19.9323C33.5807 20.166 33.7891 20.2539 33.9627 20.1992H33.9628L33.963 20.1991C34.0615 20.1686 34.1389 20.0992 34.1969 19.9852C34.2549 19.8711 34.2893 19.7126 34.2893 19.5223V4.78552C34.2868 4.02218 34.682 3.40524 35.3234 3.20263C35.9397 3.00521 36.6228 3.26195 37.0292 3.84586L37.0308 3.84817L37.0323 3.85057C38.0293 5.47803 40.5161 9.47298 42.7618 13.0742C45.0062 16.6733 47.013 19.8842 47.0445 19.9342C47.0446 19.9343 47.0446 19.9344 47.0447 19.9345C47.207 20.1668 47.4286 20.2595 47.6136 20.2012C47.7138 20.1696 47.7939 20.0988 47.8536 19.9846C47.9133 19.8705 47.9489 19.7132 47.9489 19.5245V0.0912337V0.090232H45.0133V11.4386C45.0133 11.4386 43.1955 8.3589 40.0965 3.04355C37.0646 -2.16365 31.3427 -0.0114284 31.3404 4.46926V11.4365C31.3404 11.4365 29.5662 8.35459 26.4692 3.03924C25.2367 0.924667 23.5587 0.0239856 22.0006 0.000473508ZM13.0627 0.090232C-3.80641 0.0881342 -3.64638 24.0983 13.29 24.1092H19.9076C22.7556 24.1113 24.5843 22.4238 24.5821 19.3137V13.232C24.5821 13.232 28.2936 19.3798 29.7501 21.7861C32.2281 25.8778 38.2245 25.0732 38.2095 19.9623V13.2363C38.2095 13.2363 41.9209 19.3818 43.3794 21.7914C45.8574 25.8818 51.8542 25.0765 51.839 19.9643V0.090232H48.9079V19.5243V19.5245C48.9099 20.4429 48.3946 20.9562 47.9036 21.1112L47.9033 21.1113C47.3044 21.3021 46.6529 21.0468 46.2478 20.4671L46.2464 20.4651L46.2451 20.4631C46.1613 20.3294 38.2179 7.6214 36.2319 4.37469C36.0671 4.14094 35.8257 4.0449 35.6116 4.11253C35.3892 4.18369 35.2479 4.41881 35.2479 4.78512V19.5199V19.5201C35.2502 20.4422 34.7436 20.954 34.2548 21.1112L34.2545 21.1113L34.2542 21.1114C33.664 21.2967 33.0229 21.0419 32.6203 20.4627L32.6193 20.4613L32.6184 20.4599C32.6024 20.435 32.4742 20.2301 32.245 19.8636C32.0158 19.4972 31.6907 18.9771 31.2966 18.3464C30.5085 17.0849 29.4448 15.3812 28.3218 13.5802C26.0767 9.97997 23.5962 5.99342 22.6046 4.37039C22.44 4.137 22.1964 4.04267 21.9819 4.11053V4.11043C21.757 4.18171 21.6143 4.41679 21.6164 4.78021V4.78051V19.4272C21.6164 20.3672 20.845 21.1331 19.9034 21.1331H12.8246C9.60385 21.1331 7.2455 19.9651 5.69833 18.2518C4.15116 16.5385 3.41399 14.2851 3.41179 12.1143C3.40959 9.86184 4.1904 7.59458 5.723 5.88686C7.2556 4.17915 9.54194 3.03479 12.5302 3.03042H12.5303H16.8239V0.090232H13.0627Z" fill="#EC1C2E"/>
</g>
<defs>
<clipPath id="clip0_1_405">
<rect width="51.3401" height="24.3993" fill="white" transform="translate(0.498795)"/>
</clipPath>
</defs>
</svg>
