<svg width="94" height="25" viewBox="0 0 94 25" fill="none" xmlns="http://www.w3.org/2000/svg">
<g clip-path="url(#clip0_1_396)">
<path d="M9.43363 2.27345H11.4714C12.7124 2.09036 13.9797 2.25133 15.1358 2.73888C16.5861 3.61273 17.6381 5.01955 18.0673 6.65923C18.3712 7.51848 18.3712 7.51848 19.1041 7.21416H19.6761V0.411726H0.49606V1.6111H1.28257C1.62435 1.60873 1.96232 1.68308 2.27165 1.82867C2.58097 1.97427 2.8538 2.18742 3.07008 2.45246C3.80296 3.63393 3.92809 4.95862 3.92809 11.8506C3.92809 19.1721 3.76721 20.9622 3.07008 21.8752C2.89798 22.1099 2.67516 22.3026 2.41826 22.439C2.16135 22.5754 1.87701 22.6519 1.58644 22.6629C0.496061 22.8598 0.49606 22.8419 0.49606 23.3252C0.435761 23.4868 0.435761 23.6648 0.49606 23.8264H12.5975C12.6776 23.6683 12.7193 23.4935 12.7193 23.3162C12.7193 23.139 12.6776 22.9642 12.5975 22.8061C12.3044 22.7244 12.0057 22.6646 11.7038 22.6271C11.3772 22.5882 11.0543 22.5223 10.7385 22.4301C10.2863 22.0995 9.92807 21.6564 9.69921 21.1447C9.47036 20.633 9.37882 20.0703 9.43363 19.5123C9.25488 18.3308 9.1655 16.1647 9.1655 14.3746V12.9604H9.88051C10.7713 12.9331 11.6616 13.0295 12.526 13.2468C12.9401 13.5031 13.2926 13.8478 13.5584 14.2563C13.8241 14.6647 13.9965 15.1269 14.0633 15.6098L14.2242 16.1647H15.3145V8.23453H14.3135L14.1527 9.00428C14.085 9.49811 13.9026 9.96915 13.62 10.3795C13.3375 10.7899 12.9628 11.1282 12.526 11.3672C12.103 11.4933 11.6574 11.5239 11.2211 11.4567H9.1655V9.52341C9.1655 7.51848 9.27275 3.29381 9.34425 2.63147L9.43363 2.27345ZM93.0893 16.4691C92.2443 15.1072 90.9265 14.1062 89.3891 13.6586C88.2105 13.2896 87.1211 12.6801 86.1895 11.8685C85.9798 11.6654 85.823 11.4141 85.7326 11.1364C85.6423 10.8586 85.6211 10.563 85.6711 10.2753C85.6725 9.71082 85.8975 9.16999 86.2967 8.77156C86.5673 8.48776 86.9098 8.28289 87.2876 8.17884C87.6654 8.0748 88.0643 8.07548 88.4417 8.18083C89.2232 8.40386 89.9298 8.83441 90.4868 9.42688C91.0438 10.0193 91.4304 10.7517 91.6056 11.5462C91.8916 12.3518 91.9274 12.3518 92.4457 12.137L92.7675 12.0117V7.55428L92.5351 7.44688C90.7753 6.82791 88.9086 6.57215 87.0475 6.69503C85.4447 6.7357 83.9148 7.37407 82.7574 8.48514C82.2325 8.97723 81.8214 9.57827 81.5527 10.2462C81.2841 10.9141 81.1645 11.6327 81.2023 12.3518C81.2123 13.4511 81.6481 14.5037 82.4178 15.2876C83.2684 16.1254 84.3121 16.7402 85.4566 17.0777C88.2272 18.1697 89.0316 18.8678 89.0316 20.1388C89.0435 20.6748 88.873 21.1989 88.5482 21.625C88.2234 22.0511 87.7635 22.354 87.2441 22.4838C86.6199 22.6212 85.9735 22.6212 85.3493 22.4838C84.5321 22.1662 83.8025 21.6578 83.2211 21.0008C82.6397 20.3438 82.2233 19.5573 82.0067 18.7067L81.7743 18.1339H81.4525C81.2988 18.1453 81.1479 18.1816 81.0057 18.2413H80.8269V23.3252H81.1308C82.3384 23.7275 83.5844 24.0035 84.8488 24.1486H86.6363C87.4115 24.2056 88.1908 24.133 88.9422 23.9338C89.8962 23.7575 90.7875 23.3343 91.5275 22.7062C92.2676 22.0782 92.8306 21.2671 93.1608 20.3536C93.3741 19.8434 93.4835 19.2956 93.4825 18.7425C93.5529 17.9633 93.4173 17.1792 93.0893 16.4691ZM76.2509 7.21416C75.1797 6.76379 74.0256 6.54532 72.8642 6.57308C71.7028 6.60085 70.5604 6.87422 69.512 7.37527C68.5264 7.85804 67.6529 8.54239 66.9479 9.38416C66.2428 10.2259 65.7218 11.2064 65.4185 12.2623C65.0319 13.4141 64.8681 14.6292 64.9359 15.8425C64.9231 16.5026 64.977 17.1624 65.0968 17.8116C65.3855 19.4081 66.1551 20.8778 67.3022 22.0234C68.4493 23.169 69.9191 23.9356 71.514 24.2203C72.5526 24.3513 73.6035 24.3513 74.6421 24.2203C75.7199 24.03 76.7513 23.6351 77.6809 23.0567C78.4498 22.625 79.1006 22.0102 79.5757 21.2666C79.5452 21.1499 79.4914 21.0406 79.4177 20.9452C79.344 20.8499 79.2518 20.7704 79.1467 20.7116C78.9426 20.7856 78.7501 20.8881 78.5746 21.0159C77.6856 21.6028 76.6357 21.8969 75.5716 21.8573C74.8654 21.9051 74.1573 21.795 73.4988 21.5349C72.8403 21.2748 72.2478 20.8713 71.7642 20.3536C71.3902 20.0057 71.0814 19.5934 70.8526 19.1363C70.2971 18.0235 69.9978 16.8001 69.9767 15.5561V14.858H79.8795V14.4999C79.9014 14.1422 79.9014 13.7835 79.8795 13.4259C79.876 12.1619 79.5384 10.9213 78.9011 9.83032C78.2637 8.7393 77.3494 7.83668 76.2509 7.21416ZM71.2637 13.408H70.0125V12.3518C70.4236 9.64872 71.4425 8.03762 72.6937 8.03762C73.945 8.03762 74.4812 9.63082 74.7136 12.5487V13.3722H73.6411L71.2637 13.408ZM45.5593 6.62342C44.9416 6.59944 44.3276 6.72857 43.7718 6.99935C42.5636 7.58691 41.5878 8.56415 41.0011 9.77403L40.7687 10.2037V6.62342H40.6794C40.4649 6.62342 33.8511 7.94811 33.6366 8.03762C33.4221 8.12712 33.4936 8.14502 33.4936 8.46724C33.4936 8.78946 33.4936 8.84317 33.6366 8.86107L34.3337 9.00428C34.5289 9.00907 34.7205 9.05831 34.894 9.14825C35.0674 9.2382 35.2181 9.36649 35.3347 9.52341C35.7816 10.1141 35.871 11.1524 35.871 15.574C35.9592 17.5645 35.8755 19.559 35.6207 21.5351C35.5607 21.833 35.4098 22.105 35.1889 22.3134C34.968 22.5219 34.6879 22.6565 34.3873 22.6987L33.7796 22.824H33.5472V23.3252C33.4823 23.4921 33.4823 23.6774 33.5472 23.8443H43.5394V23.3252C43.5741 23.1539 43.5741 22.9774 43.5394 22.8061C42.9378 22.7826 42.3395 22.7047 41.7519 22.5733C41.4319 22.4057 41.1701 22.145 41.001 21.8254C40.8319 21.5059 40.7634 21.1425 40.8045 20.7832C40.6615 19.745 40.59 16.7018 40.6257 14.3746C40.6615 12.0475 40.6257 11.9043 40.8224 11.7432C41.4205 11.2839 42.1607 11.0495 42.9138 11.0808C43.6236 11.0963 44.3206 11.2739 44.9515 11.5999C45.1703 11.7216 45.4049 11.812 45.6487 11.8685C45.6487 11.8685 47.4362 7.53638 47.4362 7.33947C47.2074 7.07327 46.916 6.86839 46.5883 6.74337C46.2606 6.61834 45.9069 6.57712 45.5593 6.62342ZM33.5114 14.1419C33.449 12.8627 33.0823 11.6169 32.4418 10.5084C31.8013 9.3999 30.9055 8.46071 29.8292 7.7691C28.55 7.07802 27.1269 6.69697 25.674 6.65656C24.2211 6.61614 22.7791 6.91748 21.4636 7.53638C19.6037 8.51858 18.1994 10.1882 17.5489 12.1907C16.8771 14.4326 16.8771 16.8228 17.5489 19.0647C17.9011 20.29 18.5594 21.4052 19.4616 22.3048C20.5852 23.4028 22.034 24.1063 23.5907 24.3098C24.59 24.3934 25.5945 24.3934 26.5938 24.3098C26.9615 24.2537 27.3256 24.176 27.6841 24.077C29.1391 23.6694 30.4481 22.8553 31.4579 21.7299C32.4677 20.6045 33.1366 19.2144 33.3863 17.7221C33.5648 16.5375 33.6067 15.3362 33.5114 14.1419ZM26.0754 23.0925C24.2879 23.6295 22.9472 21.8931 22.5004 18.2413C22.3362 16.3294 22.3362 14.4069 22.5004 12.495C22.8579 9.55921 23.7695 8.07342 25.1816 8.07342C25.4665 8.05574 25.7515 8.10664 26.0127 8.22187C26.274 8.33711 26.5038 8.51332 26.6831 8.73576C27.8808 9.93514 28.4706 12.316 28.4706 15.8962C28.6194 17.9224 28.3014 19.9558 27.5411 21.8394C27.2055 22.3888 26.6861 22.8011 26.0754 23.003V23.0925ZM58.2506 6.98145C57.7462 6.91645 57.2356 6.91645 56.7312 6.98145C55.763 6.98062 54.806 7.18819 53.9248 7.59009L53.3707 7.8228V3.93825C53.4676 2.62729 53.4676 1.31096 53.3707 0C53.1562 0 46.3279 1.30678 46.2207 1.36049C46.1679 1.49265 46.1679 1.64005 46.2207 1.77221C46.2207 2.14814 46.2207 2.13024 47.025 2.30925C47.2509 2.35997 47.4678 2.44446 47.6685 2.55986C48.0175 2.88846 48.2497 3.32216 48.3299 3.79504C48.5334 5.15736 48.5993 6.53676 48.5266 7.91231V23.6295L49.0092 23.7369C49.7242 23.898 51.7441 24.2382 52.4055 24.3098C53.7261 24.415 55.0531 24.415 56.3737 24.3098C57.8396 24.1598 59.2369 23.6121 60.4149 22.7257C61.593 21.8393 62.5072 20.6478 63.059 19.2795C63.388 18.4014 63.6159 17.4885 63.7383 16.5586C63.8447 15.299 63.8027 14.0312 63.6132 12.7814C63.4214 11.3805 62.804 10.0726 61.8447 9.03502C60.8854 7.99747 59.6306 7.28053 58.2506 6.98145ZM53.5673 22.7882C53.5673 22.5554 53.3886 14.7147 53.4243 11.582V9.12959L53.9427 9.00428C54.2925 8.95409 54.6476 8.95409 54.9973 9.00428C55.3842 8.96489 55.7732 9.05287 56.1056 9.25489C56.7732 9.71627 57.3275 10.3233 57.7269 11.0303C58.1263 11.7372 58.3604 12.5257 58.4115 13.3364C58.5417 14.6399 58.5417 15.9532 58.4115 17.2567C58.3045 19.1513 57.5756 20.9574 56.338 22.3943C55.9867 22.7285 55.5456 22.9525 55.0689 23.0388C54.7081 23.1016 54.3392 23.1016 53.9785 23.0388C53.6388 23.0388 53.6388 22.9314 53.6388 22.7882H53.5673Z" fill="#33629A"/>
</g>
<defs>
<clipPath id="clip0_1_396">
<rect width="93.0222" height="24.3993" fill="white" transform="translate(0.478394)"/>
</clipPath>
</defs>
</svg>
