<svg width="26" height="25" viewBox="0 0 26 25" fill="none" xmlns="http://www.w3.org/2000/svg">
<g clip-path="url(#clip0_1_398)">
<path d="M0.800018 0H25.1993V19.7901H0.800018V0Z" fill="#003366"/>
<path d="M0.800041 20.0605H25.1993V24.3991H0.800041V20.0605Z" fill="#C20017"/>
<path d="M25.1993 14.1654H25.1538C24.8832 13.5016 24.577 12.8536 24.2352 12.2233H24.5355C24.7725 12.6777 24.9938 13.1381 25.1993 13.6063V14.1654ZM0.800018 2.71059C2.00121 2.30756 3.23599 2.02306 4.49251 1.85909L4.8501 0H7.74838L7.09839 1.6872C7.87877 1.68523 8.65717 1.73067 9.43163 1.82352L10.3345 0H13.5192L12.0019 2.30361C14.0151 2.82518 15.9315 3.66285 17.678 4.787C18.0257 5.01025 18.3635 5.24535 18.6915 5.48835H18.2312C16.301 4.12911 14.1376 3.12943 11.8478 2.54266L9.99271 5.42118H8.66113V7.38102L5.37562 12.741H4.32458V14.5329L0.95807 19.7901H0.851385L9.30914 2.07641C8.54456 1.9875 7.77406 1.94601 7.00553 1.95194L0.823726 19.7901H0.800018M0.800018 19.4601L4.43324 2.13963C3.20241 2.31151 1.99133 2.60391 0.815824 3.00891H0.800018" fill="white"/>
<path d="M10.8304 9.94356H12.6124V8.27809H10.8304V7.48388H12.9997L12.8811 5.81445H9.01674V11.9271H10.8304V9.94356ZM18.3695 11.9093H20.3194L21.2085 10.4098L22.1192 11.9113H24.1147L22.1904 8.74434L23.923 5.82433H21.9474L21.2025 7.0927L20.4301 5.82038H18.4208L20.2048 8.75817L18.3695 11.9093ZM16.1014 11.9765C17.8262 12.0002 19.2447 10.6252 19.2743 8.90042C19.2012 7.14604 17.7215 5.78284 15.9651 5.85397C14.3115 5.92311 12.9878 7.2468 12.9186 8.90042C12.9463 10.6271 14.3688 12.0042 16.0955 11.9765H16.1014ZM15.5403 7.55895C15.5423 7.25668 15.7814 7.0117 16.0817 6.99787C16.3918 7.00379 16.6427 7.25075 16.6546 7.55895V10.153C16.6329 10.4612 16.3662 10.6923 16.058 10.6706C15.7794 10.6508 15.5601 10.4296 15.5403 10.153V7.55895ZM11.2433 16.4909H13.0886V15.2679H11.2433V14.4362H13.4916V13.1125H9.81886V18.8281H13.5192V17.453H11.2433V16.4909ZM19.1854 13.1125L18.4781 16.3842L17.7866 13.1125H16.5657L15.9078 16.4178L15.2223 13.1125H13.7662L15.0879 18.8281H16.4155L17.0655 15.5524L17.7353 18.8281H19.0353L20.3629 13.1125H19.1854ZM24.006 15.6947C23.6267 15.345 23.192 15.2521 22.704 15.1138C22.1271 14.9518 21.8091 14.9341 21.8091 14.5982C21.8328 14.3493 22.0541 14.1675 22.303 14.1912C22.305 14.1912 22.3069 14.1912 22.3069 14.1912C22.6744 14.1616 23.0103 14.4046 23.0952 14.7641L24.3419 14.3493C24.1107 13.48 23.3046 12.8893 22.4057 12.9288C21.1038 12.9288 20.3076 13.7289 20.3076 14.8056C20.3076 15.7362 20.8489 16.1945 21.9335 16.5185C22.5815 16.7141 22.9253 16.6983 22.9253 17.1152C22.9253 17.3345 22.7218 17.5063 22.384 17.5063C21.9375 17.5577 21.5305 17.2515 21.4535 16.8089L20.0863 17.1092C20.3194 18.1939 21.1275 18.8379 22.3662 18.8379C22.9787 18.8537 23.5694 18.6107 23.9922 18.1682C24.3043 17.8244 24.4762 17.376 24.4722 16.9097C24.4979 16.4553 24.326 16.0128 24.004 15.6927H24.006V15.6947ZM8.04472 15.9811L6.34171 13.1382H4.69007V18.832H6.1402V15.505L8.08424 18.8241H9.45929V13.1303H8.04867L8.04472 15.9811Z" fill="white"/>
<path d="M3.14515 22.0227C3.30122 21.995 3.45532 22.0839 3.51064 22.2321H4.32461C4.27324 21.8469 3.83662 21.6177 3.157 21.6177C2.37859 21.6276 1.88468 21.9614 1.88468 22.5048C1.88468 22.9987 2.37069 23.3187 3.10761 23.3187C3.78723 23.3187 4.23175 23.0836 4.31473 22.6826H3.51262C3.46718 22.8367 3.33876 22.9137 3.13132 22.9137C2.86065 22.9137 2.71445 22.7695 2.71445 22.483C2.71445 22.1966 2.86658 22.0227 3.14515 22.0227ZM11.0616 22.9552V22.3566C11.0932 22.1709 11.0319 21.9812 10.8996 21.8488C10.6269 21.6849 10.3088 21.6118 9.99077 21.6434C9.28941 21.6434 8.90614 21.8133 8.82711 22.1847H9.57193C9.60354 22.0681 9.73986 22.0049 9.97299 22.0049C10.2061 22.0049 10.293 22.0543 10.293 22.1452V22.1827C10.293 22.3052 9.98682 22.2795 9.41388 22.3665C8.97726 22.4317 8.75796 22.5937 8.75796 22.8564C8.75796 23.1192 9.04443 23.3128 9.53044 23.3128C9.80703 23.3207 10.0816 23.2456 10.3168 23.0994C10.3247 23.1547 10.3385 23.2101 10.3582 23.2614H11.1722V23.2022C11.1011 23.1745 11.0635 23.0915 11.0635 22.9493L11.0616 22.9552ZM10.2891 22.7003C10.2891 22.8683 10.0935 22.971 9.82086 22.971C9.6391 22.971 9.52254 22.892 9.52254 22.7833C9.52254 22.6747 9.60749 22.6391 9.79321 22.6075C9.96113 22.5917 10.1271 22.562 10.2891 22.5186V22.7003ZM13.9381 21.6453C13.6635 21.6216 13.3928 21.7145 13.1893 21.9002V21.6888H12.403V23.2693H13.217V22.4198C13.217 22.1491 13.3336 22.0385 13.626 22.0385C13.9184 22.0385 13.9658 22.1788 13.9658 22.4692V23.2634H14.7797V22.2301C14.7699 21.8311 14.5466 21.6453 13.948 21.6453H13.9381ZM6.90481 21.6671C6.63019 21.6473 6.35755 21.7362 6.14616 21.914V21.1475H5.33219V23.2891H6.14616V22.4455C6.14616 22.1748 6.26272 22.0642 6.55512 22.0642C6.84751 22.0642 6.89493 22.2045 6.89493 22.4949V23.2891H7.7089V22.2045C7.7089 21.8528 7.43033 21.6671 6.91271 21.6671H6.90481ZM17.7491 21.6453C17.4745 21.6216 17.2039 21.7145 17.0004 21.9002V21.6888H16.2279V23.2693H17.0419V22.4198C17.0419 22.1491 17.1584 22.0385 17.4508 22.0385C17.7432 22.0385 17.7906 22.1788 17.7906 22.4692V23.2634H18.6046V22.2301C18.5947 21.8311 18.3695 21.6453 17.7689 21.6453H17.7491ZM20.9102 21.6295C20.1575 21.6295 19.6695 21.9516 19.6695 22.481C19.6695 23.0105 20.1673 23.3167 20.9299 23.3167C21.5621 23.3167 22.0146 23.1152 22.1509 22.7754H21.3725C21.3152 22.89 21.1769 22.9493 20.9576 22.9493C20.6711 22.9493 20.5151 22.8307 20.5151 22.6075H22.1845C22.1865 22.5759 22.1865 22.5462 22.1845 22.5146C22.1904 21.9614 21.7064 21.6315 20.9299 21.6315L20.9102 21.6295ZM20.4736 22.3032C20.5052 22.0918 20.6751 21.9773 20.9339 21.9773C21.1927 21.9773 21.3903 22.0958 21.3942 22.3032H20.4736ZM23.3007 21.1455V23.2871H24.1147V21.1455H23.3007Z" fill="white"/>
</g>
<defs>
<clipPath id="clip0_1_398">
<rect width="24.3993" height="24.3993" fill="white" transform="translate(0.800018)"/>
</clipPath>
</defs>
</svg>
