<svg width="182" height="25" viewBox="0 0 182 25" fill="none" xmlns="http://www.w3.org/2000/svg">
<g clip-path="url(#clip0_1_420)">
<path d="M14.4355 2.83055C14.4355 0.87861 12.5811 0.390625 11.1172 0.390625V0.683416C11.9956 0.683416 12.6787 0.976207 12.6787 1.65939C12.6787 2.04978 12.386 2.63536 11.5076 2.63536C10.8244 2.63536 9.36044 2.24497 8.28687 1.85458C7.01811 1.3666 5.84695 0.976207 4.87098 0.976207C2.91904 0.976207 1.55268 2.44016 1.55268 4.09931C1.55268 5.56327 2.62624 6.05125 3.01663 6.24645L3.11423 6.05125C2.91904 5.85606 2.62624 5.66087 2.62624 5.07528C2.62624 4.6849 3.01663 4.00172 3.9926 4.00172C4.87098 4.00172 6.04214 4.3921 7.60369 4.88009C8.97005 5.27048 10.434 5.56327 11.2148 5.66087V8.68638L9.75083 9.95514V10.0527L11.2148 11.3215V15.5182C10.434 16.0062 9.55564 16.1038 8.77486 16.1038C7.3109 16.1038 6.04214 15.7134 4.96857 14.5422L8.97005 12.5903V5.85606L4.0902 8.0032C4.48059 6.73443 5.55416 5.85606 6.62772 5.27048L6.53013 4.97769C3.60221 5.75846 0.967094 8.49118 0.967094 11.8095C0.967094 15.7134 4.1878 18.6413 7.79889 18.6413C11.7028 18.6413 14.2403 15.5182 14.2403 12.2975H14.0451C13.4595 13.5662 12.5811 14.7374 11.5076 15.323V11.3215L13.0691 10.0527V9.95514L11.5076 8.68638V5.66087C12.9715 5.66087 14.4355 4.6849 14.4355 2.83055ZM5.94454 13.5662L4.77338 14.1518C4.0902 13.2734 3.69981 12.1023 3.69981 10.4431C3.69981 9.75994 3.69981 8.97917 3.89501 8.39359L5.94454 7.51521V13.5662ZM16.2898 15.811L15.0211 16.7869L15.2163 16.9821L15.8018 16.4941L17.949 18.4461L20.8769 16.4941L20.7793 16.2989L19.9985 16.7869L19.0226 15.811V9.17436L19.8033 8.58878L21.4625 9.95514V15.9086C21.4625 19.6172 20.6817 20.2028 19.0226 20.7884V21.0812C21.7553 21.1788 24.2928 20.3004 24.2928 15.5182V9.07676L25.1712 8.39359L24.976 8.19839L24.1952 8.78397L21.7553 6.73443L19.0226 8.78397V0.781013H18.8274L15.4115 3.12334V3.31854C15.8018 3.51373 16.3874 3.70893 16.3874 4.78249L16.2898 15.811ZM34.1501 14.7374L31.7102 16.5917L29.2702 14.6398V13.4686L33.8573 10.3455V10.2479L31.515 6.73443L26.4399 9.46715V15.9086L25.464 16.6893L25.6592 16.8845L26.5375 16.2014L29.8558 18.6413L34.2477 15.1278L34.1501 14.7374ZM29.2702 13.0782V8.29599L29.4654 8.19839L31.6126 11.6143L29.2702 13.0782ZM52.7911 1.95218C52.7911 1.65939 52.6935 1.3666 52.5959 1.0738H52.4007C52.108 1.85458 51.7176 2.24497 50.7416 2.24497C49.8632 2.24497 49.2776 1.75698 48.8872 1.3666L46.0569 4.5873L46.2521 4.78249L47.2281 3.90412C47.8137 4.3921 48.3017 4.78249 49.668 4.88009V12.9806L43.9098 3.12334C43.4218 2.34257 42.7386 1.269 41.3723 1.269C39.8107 1.269 38.4444 2.63536 38.6396 4.78249H38.9324C39.0299 4.19691 39.3227 3.51373 40.0059 3.51373C40.4939 3.51373 40.9819 4.00172 41.2747 4.4897V7.7104C39.5179 7.7104 38.3468 8.49118 38.3468 9.95514C38.3468 10.7359 38.7372 11.9071 39.9083 12.1999V12.0047C39.7131 11.8095 39.6155 11.6143 39.6155 11.3215C39.6155 10.8335 40.0059 10.4431 40.6891 10.4431H41.1771V14.5422C39.1275 14.5422 37.4684 15.7134 37.4684 17.6653C37.4684 19.5196 39.0299 20.398 40.7867 20.3004V20.1052C39.7131 20.0076 39.2251 19.5196 39.2251 18.8365C39.2251 17.9581 39.8107 17.5677 40.5915 17.5677C41.3723 17.5677 42.0555 18.0557 42.5434 18.6413L45.3738 15.5182L45.1786 15.323L44.4954 16.1038C43.4218 15.1278 42.8362 14.835 41.5675 14.6398V4.88009L49.3752 18.5437H49.9608V4.88009C51.4248 4.78249 52.7911 3.61133 52.7911 1.95218ZM59.9157 14.7374L57.4758 16.5917L55.0359 14.6398V13.4686L59.6229 10.3455V10.2479L57.2806 6.73443L52.2056 9.46715V15.9086L51.2296 16.6893L51.4248 16.8845L52.3031 16.2014L55.6214 18.6413L60.0133 15.1278L59.9157 14.7374ZM55.0359 13.0782V8.29599L55.2311 8.19839L57.3782 11.6143L55.0359 13.0782ZM75.824 7.808L75.1409 8.29599L73.2865 6.73443L71.1394 8.68638L72.0178 9.56475V16.8845L69.6754 15.4206V9.36956L70.4562 8.88157L68.2115 6.73443L66.0643 8.68638L66.9427 9.56475V16.5917L66.6499 16.7869L64.6004 15.323V9.46715C64.6004 8.10079 63.9172 7.7104 63.1364 7.22242C62.4532 6.73443 62.0629 6.44164 62.0629 5.75846C62.0629 5.17288 62.6484 4.88009 62.9412 4.6849V4.4897C62.1605 4.4897 60.1109 5.27048 60.1109 7.12482C60.1109 8.10079 60.5989 8.49118 61.0869 8.97917C61.5749 9.46715 62.0629 9.85754 62.0629 10.7359V16.3965L60.9893 17.1773L61.1845 17.3725L62.1605 16.5917L64.4052 18.5437L66.8451 16.8845L69.5778 18.5437L74.7505 15.5182V8.97917L76.0192 8.0032L75.824 7.808ZM93.9771 2.44016L93.0011 3.31854L90.854 1.3666L87.6333 3.70893V1.56179H87.3405L87.4381 17.3725C87.1453 17.3725 86.2669 17.1773 85.5837 16.9821L85.3885 3.80652C85.3885 2.83055 84.7054 1.46419 82.9486 1.46419C81.1919 1.46419 80.0207 2.83055 80.0207 4.19691H80.3135C80.4111 3.61133 80.7039 3.12334 81.2895 3.12334C81.8751 3.12334 82.363 3.51373 82.363 4.78249V8.58878C80.6063 8.68638 79.5327 9.66235 79.5327 10.9311C79.5327 11.7119 79.9231 12.883 81.0943 12.883V12.6879C80.7039 12.4927 80.6063 12.1999 80.6063 12.0047C80.6063 11.4191 81.0943 11.2239 81.8751 11.2239H82.2654V17.2749C80.8015 17.7629 80.2159 18.8365 80.2159 20.0076C80.2159 21.6668 81.4847 22.8379 83.4366 22.8379C84.803 22.8379 85.9741 22.6428 87.1453 22.35C88.1213 22.1548 89.39 21.862 89.9756 21.862C90.7564 21.862 91.0492 22.2524 91.0492 22.7404C91.0492 23.4235 90.7564 23.7163 90.366 23.8139V24.0091C91.9276 23.7163 92.9035 22.7404 92.9035 21.2764C92.9035 19.8124 91.4396 18.9341 89.878 18.9341C89.0972 18.9341 87.4381 19.2269 86.2669 19.4221C84.9006 19.7148 83.5342 19.91 83.1438 19.91C82.4606 19.91 81.6799 19.6172 81.6799 18.6413C81.6799 17.8605 82.363 17.1773 84.0222 17.1773C84.9006 17.1773 85.9741 17.2749 87.0477 17.5677C88.2189 17.8605 89.2924 18.1533 90.2684 18.1533C91.7324 18.1533 93.0011 17.6653 93.0011 15.6158V3.61133L94.1723 2.63536L93.9771 2.44016ZM89.9756 8.39359C89.6828 8.68638 89.2924 8.97917 88.8045 8.97917C88.3165 8.97917 87.8285 8.68638 87.6333 8.39359V4.09931L88.6093 3.41613L89.9756 4.6849V8.39359ZM89.9756 11.3215C89.7804 11.1263 89.2924 10.8335 88.8045 10.8335C88.3165 10.8335 87.8285 11.1263 87.6333 11.3215V8.78397C87.8285 8.97917 88.3165 9.27196 88.8045 9.27196C89.2924 9.27196 89.7804 8.97917 89.9756 8.78397V11.3215ZM89.9756 15.9086C89.9756 16.6893 89.4876 17.4701 88.4141 17.4701H87.6333V11.7119C87.8285 11.5167 88.3165 11.2239 88.8045 11.2239C89.2924 11.2239 89.6828 11.5167 89.9756 11.7119V15.9086ZM103.346 8.97917L100.223 6.73443L95.4411 9.46715V15.811L94.4651 16.5917L94.5627 16.7869L95.3435 16.2014L98.4666 18.5437L103.346 15.6158V8.97917ZM98.0762 15.1278V8.10079L100.516 9.85754V16.7869L98.0762 15.1278ZM112.618 6.92963H112.423C112.13 7.12482 111.837 7.32002 111.545 7.32002C111.154 7.32002 110.666 7.12482 110.471 6.83203H110.276L108.617 8.68638L106.958 6.83203L104.03 8.78397L104.127 8.97917L104.908 8.49118L105.884 9.56475V15.7134L104.615 16.6893L104.81 16.8845L105.396 16.3965L107.738 18.3485L110.764 16.2989L110.666 16.1038L109.788 16.5917L108.617 15.6158V8.78397C109.105 9.27196 109.69 9.75994 110.373 9.75994C111.74 9.85754 112.521 8.49118 112.618 6.92963ZM124.33 16.2989L121.011 18.5437L116.522 11.7119L119.743 6.73443H119.938C120.328 7.12482 120.914 7.51521 121.597 7.51521C122.28 7.51521 122.768 7.12482 123.061 6.73443H123.256C123.159 8.68638 121.792 9.85754 120.816 9.85754C119.84 9.85754 119.352 9.36956 118.767 9.07676L118.474 9.56475L123.354 16.7869L124.33 16.2014V16.2989ZM113.594 15.811L112.325 16.7869L112.521 16.9821L113.106 16.4941L115.253 18.4461L118.181 16.4941L117.986 16.2989L117.205 16.7869L116.229 15.811V0.781013H116.132L112.618 3.12334V3.31854C113.009 3.51373 113.594 3.61133 113.594 4.78249V15.811ZM140.531 2.83055C140.531 0.87861 138.677 0.390625 137.213 0.390625V0.683416C138.091 0.683416 138.774 0.976207 138.774 1.65939C138.774 2.04978 138.481 2.63536 137.603 2.63536C136.92 2.63536 135.456 2.24497 134.382 1.85458C133.114 1.46419 131.942 1.0738 130.966 1.0738C129.014 1.0738 127.648 2.53776 127.648 4.19691C127.648 5.66087 128.722 6.14885 129.112 6.34405L129.21 6.14885C128.917 5.95366 128.624 5.75846 128.624 5.17288C128.624 4.78249 129.014 4.09931 129.99 4.09931C130.869 4.09931 132.04 4.4897 133.601 4.97769C134.968 5.36807 136.432 5.66087 137.213 5.75846V8.78397L135.749 10.0527V10.1503L137.213 11.4191V15.6158C136.432 16.1038 135.553 16.2014 134.773 16.2014C133.309 16.2014 132.04 15.811 130.966 14.6398L134.968 12.6879V5.85606L130.088 8.0032C130.576 6.73443 131.65 5.85606 132.626 5.17288L132.528 4.97769C129.6 5.75846 126.965 8.39358 126.965 11.7119C126.965 15.6158 130.186 18.5437 133.797 18.5437C137.701 18.5437 140.238 15.4206 140.238 12.1999H140.043C139.457 13.4686 138.579 14.6398 137.505 15.2254V11.2239L139.067 9.95514V9.85754L137.603 8.58878V5.66087C139.067 5.66087 140.531 4.6849 140.531 2.83055ZM132.04 13.5662L130.869 14.1518C130.186 13.2734 129.795 12.1023 129.795 10.4431C129.795 9.75994 129.893 8.97917 130.088 8.39359L132.138 7.51521L132.04 13.5662ZM143.947 1.85458H143.849L141.897 3.51373V3.61133L143.556 5.46567H143.752L145.704 3.80652V3.70893L143.947 1.85458ZM146.875 16.2989L146.094 16.7869L145.118 15.811V9.07676L146.094 8.39359L145.899 8.19839L145.216 8.78397L143.459 6.73443L140.629 8.68638L140.824 8.97917L141.507 8.49118L142.385 9.56475V15.9086L141.116 16.8845L141.214 17.0797L141.897 16.5917L144.044 18.5437L146.972 16.5917L146.875 16.2989ZM163.173 16.2014L162.49 16.6893L161.417 15.7134V9.07676L162.393 8.29599L162.197 8.10079L161.417 8.78397L159.172 6.73443L156.244 8.78397L153.999 6.73443L151.267 8.78397L149.51 6.73443L146.68 8.68638L146.777 8.97917L147.46 8.49118L148.436 9.56475V15.9086L147.655 16.6893L149.9 18.5437L152.047 16.5917L151.169 15.7134V9.07676L152.047 8.49118L153.511 9.85754V15.7134L152.731 16.4941L154.975 18.3485L157.122 16.3965L156.244 15.5182V9.07676L157.025 8.58878L158.586 9.95514V15.811L157.903 16.4941L160.148 18.5437L163.173 16.4941V16.2014ZM171.664 14.7374L169.224 16.5917L166.784 14.6398V13.4686L171.372 10.3455V10.2479L169.029 6.73443L163.954 9.46715V16.1038L167.37 18.5437L171.762 15.0302L171.664 14.7374ZM166.784 13.0782V8.29599L166.98 8.19839L169.127 11.6143L166.784 13.0782ZM180.546 12.1999L178.691 10.7359C179.96 9.66235 180.448 8.19839 180.448 7.22242V6.63684H180.253C180.058 7.12482 179.667 7.61281 178.887 7.61281C178.106 7.61281 177.618 7.22242 177.13 6.63684L172.738 9.07676V12.5903L174.397 13.859C172.738 15.323 172.445 16.2989 172.445 17.0797C172.445 18.0557 172.933 18.7389 173.714 19.0317L173.812 18.8365C173.616 18.6413 173.421 18.5437 173.421 18.0557C173.421 17.7629 173.811 17.2749 174.592 17.2749C175.568 17.2749 176.154 17.9581 176.447 18.2509L180.643 15.7134V12.1999H180.546ZM179.472 9.27196C178.789 10.4431 177.325 11.6143 176.447 12.1999L175.373 11.3215V7.9056C175.763 8.88157 176.837 9.66235 177.911 9.66235C178.594 9.66235 178.984 9.56475 179.472 9.27196ZM177.813 17.0797C177.325 16.0062 176.154 15.2254 174.983 15.2254C174.69 15.2254 173.909 15.2254 173.128 15.7134C173.616 14.9326 174.885 13.5662 176.544 12.5903L177.715 13.5662L177.813 17.0797Z" fill="black"/>
</g>
<defs>
<clipPath id="clip0_1_420">
<rect width="180.555" height="24.3993" fill="white" transform="translate(0.967072)"/>
</clipPath>
</defs>
</svg>
