<svg width="80" height="16" viewBox="0 0 80 16" fill="none" xmlns="http://www.w3.org/2000/svg">
<g clip-path="url(#clip0_1_508)">
<path d="M16.1569 6.11469H10.0483L8.16135 0L6.26865 6.11469L0.159973 6.10859L5.10711 9.89141L3.21421 16L8.16135 12.2233L13.1025 16L11.2156 9.89141L16.1569 6.11469Z" fill="#00B67A"/>
<path d="M11.6403 11.2741L11.2157 9.89111L8.16144 12.223L11.6403 11.2741Z" fill="#005128"/>
</g>
<path d="M18.5795 6.21023V5.27273H25.125V6.21023H22.3807V14H21.3239V6.21023H18.5795ZM25.94 14V7.45455H26.9116V8.44318H26.9798C27.0991 8.11932 27.315 7.85653 27.6275 7.65483C27.94 7.45312 28.2923 7.35227 28.6843 7.35227C28.7582 7.35227 28.8505 7.35369 28.9613 7.35653C29.0721 7.35937 29.1559 7.36364 29.2127 7.36932V8.39205C29.1786 8.38352 29.1005 8.37074 28.9783 8.35369C28.859 8.33381 28.7326 8.32386 28.5991 8.32386C28.2809 8.32386 27.9968 8.39062 27.7468 8.52415C27.4996 8.65483 27.3036 8.83665 27.1587 9.0696C27.0167 9.29972 26.9457 9.5625 26.9457 9.85795V14H25.94ZM34.5298 11.3239V7.45455H35.5355V14H34.5298V12.892H34.4616C34.3082 13.2244 34.0696 13.5071 33.7457 13.7401C33.4219 13.9702 33.0128 14.0852 32.5185 14.0852C32.1094 14.0852 31.7457 13.9957 31.4276 13.8168C31.1094 13.6349 30.8594 13.3622 30.6776 12.9986C30.4957 12.6321 30.4048 12.1705 30.4048 11.6136V7.45455H31.4105V11.5455C31.4105 12.0227 31.544 12.4034 31.8111 12.6875C32.081 12.9716 32.4247 13.1136 32.8423 13.1136C33.0923 13.1136 33.3466 13.0497 33.6051 12.9219C33.8665 12.794 34.0852 12.598 34.2614 12.3338C34.4403 12.0696 34.5298 11.733 34.5298 11.3239ZM42.0138 8.92045L41.1104 9.17614C41.0536 9.02557 40.9698 8.87926 40.859 8.73722C40.7511 8.59233 40.6033 8.47301 40.4158 8.37926C40.2283 8.28551 39.9883 8.23864 39.6957 8.23864C39.2951 8.23864 38.9613 8.33097 38.6942 8.51562C38.43 8.69744 38.2979 8.92898 38.2979 9.21023C38.2979 9.46023 38.3888 9.65767 38.5707 9.80256C38.7525 9.94744 39.0366 10.0682 39.4229 10.1648L40.3945 10.4034C40.9798 10.5455 41.4158 10.7628 41.7028 11.0554C41.9897 11.3452 42.1332 11.7187 42.1332 12.1761C42.1332 12.5511 42.0252 12.8864 41.8093 13.1818C41.5962 13.4773 41.2979 13.7102 40.9144 13.8807C40.5309 14.0511 40.0849 14.1364 39.5763 14.1364C38.9087 14.1364 38.3562 13.9915 37.9187 13.7017C37.4812 13.4119 37.2042 12.9886 37.0877 12.4318L38.0423 12.1932C38.1332 12.5455 38.305 12.8097 38.5579 12.9858C38.8136 13.1619 39.1474 13.25 39.5593 13.25C40.0281 13.25 40.4002 13.1506 40.6758 12.9517C40.9542 12.75 41.0934 12.5085 41.0934 12.2273C41.0934 12 41.0138 11.8097 40.8548 11.6562C40.6957 11.5 40.4513 11.3835 40.1218 11.3068L39.0309 11.0511C38.4315 10.9091 37.9911 10.6889 37.7099 10.3906C37.4315 10.0895 37.2923 9.71307 37.2923 9.26136C37.2923 8.89205 37.396 8.56534 37.6033 8.28125C37.8136 7.99716 38.0991 7.77415 38.4599 7.61222C38.8235 7.45028 39.2354 7.36932 39.6957 7.36932C40.3434 7.36932 40.8519 7.51136 41.2212 7.79545C41.5934 8.07955 41.8576 8.45455 42.0138 8.92045ZM46.4936 7.45455V8.30682H43.1016V7.45455H46.4936ZM44.0902 5.88636H45.0959V12.125C45.0959 12.4091 45.1371 12.6222 45.2195 12.7642C45.3047 12.9034 45.4126 12.9972 45.5433 13.0455C45.6768 13.0909 45.8175 13.1136 45.9652 13.1136C46.076 13.1136 46.1669 13.108 46.2379 13.0966C46.3089 13.0824 46.3658 13.071 46.4084 13.0625L46.6129 13.9659C46.5447 13.9915 46.4496 14.017 46.3274 14.0426C46.2053 14.071 46.0504 14.0852 45.8629 14.0852C45.5788 14.0852 45.3004 14.0241 45.0277 13.902C44.7578 13.7798 44.5334 13.5938 44.3544 13.3438C44.1783 13.0938 44.0902 12.7784 44.0902 12.3977V5.88636ZM52.9155 7.45455C52.8643 7.02273 52.657 6.6875 52.2933 6.44886C51.9297 6.21023 51.4837 6.09091 50.9553 6.09091C50.5689 6.09091 50.2308 6.15341 49.9411 6.27841C49.6541 6.40341 49.4297 6.57528 49.2678 6.79403C49.1087 7.01278 49.0291 7.26136 49.0291 7.53977C49.0291 7.77273 49.0845 7.97301 49.1953 8.14062C49.3089 8.3054 49.4538 8.44318 49.63 8.55398C49.8061 8.66193 49.9908 8.75142 50.1839 8.82244C50.3771 8.89062 50.5547 8.94602 50.7166 8.98864L51.603 9.22727C51.8303 9.28693 52.0831 9.36932 52.3615 9.47443C52.6428 9.57955 52.9112 9.72301 53.1669 9.90483C53.4254 10.0838 53.6385 10.3139 53.8061 10.5952C53.9737 10.8764 54.0575 11.2216 54.0575 11.6307C54.0575 12.1023 53.9339 12.5284 53.6868 12.9091C53.4425 13.2898 53.0845 13.5923 52.6129 13.8168C52.1442 14.0412 51.5746 14.1534 50.9041 14.1534C50.2791 14.1534 49.7379 14.0526 49.2805 13.8509C48.826 13.6491 48.468 13.3679 48.2067 13.0071C47.9482 12.6463 47.8018 12.2273 47.7678 11.75H48.8587C48.8871 12.0795 48.9979 12.3523 49.1911 12.5682C49.3871 12.7812 49.6342 12.9403 49.9325 13.0455C50.2337 13.1477 50.5575 13.1989 50.9041 13.1989C51.3075 13.1989 51.6697 13.1335 51.9908 13.0028C52.3118 12.8693 52.5661 12.6847 52.7536 12.4489C52.9411 12.2102 53.0348 11.9318 53.0348 11.6136C53.0348 11.3239 52.9538 11.0881 52.7919 10.9062C52.63 10.7244 52.4169 10.5767 52.1527 10.4631C51.8885 10.3494 51.603 10.25 51.2962 10.1648L50.2223 9.85795C49.5405 9.66193 49.0007 9.3821 48.603 9.01847C48.2053 8.65483 48.0064 8.17898 48.0064 7.59091C48.0064 7.10227 48.1385 6.67614 48.4027 6.3125C48.6697 5.94602 49.0277 5.66193 49.4766 5.46023C49.9283 5.25568 50.4325 5.15341 50.9893 5.15341C51.5518 5.15341 52.0518 5.25426 52.4893 5.45597C52.9268 5.65483 53.2734 5.92756 53.5291 6.27415C53.7876 6.62074 53.924 7.0142 53.9382 7.45455H52.9155ZM58.3178 14.1364C57.7042 14.1364 57.1758 13.9915 56.7326 13.7017C56.2894 13.4119 55.9485 13.0128 55.7099 12.5043C55.4712 11.9957 55.3519 11.4148 55.3519 10.7614C55.3519 10.0966 55.4741 9.50994 55.7184 9.00142C55.9656 8.49006 56.3093 8.09091 56.7496 7.80398C57.1928 7.5142 57.7099 7.36932 58.3008 7.36932C58.761 7.36932 59.1758 7.45455 59.5451 7.625C59.9144 7.79545 60.217 8.03409 60.4528 8.34091C60.6886 8.64773 60.8349 9.00568 60.8917 9.41477H59.886C59.8093 9.11648 59.6388 8.85227 59.3746 8.62216C59.1133 8.3892 58.761 8.27273 58.3178 8.27273C57.9258 8.27273 57.582 8.375 57.2866 8.57955C56.994 8.78125 56.7653 9.06676 56.6005 9.43608C56.4386 9.80256 56.3576 10.233 56.3576 10.7273C56.3576 11.233 56.4371 11.6733 56.5962 12.0483C56.7582 12.4233 56.9854 12.7145 57.2781 12.9219C57.5735 13.1293 57.9201 13.233 58.3178 13.233C58.5792 13.233 58.8164 13.1875 59.0295 13.0966C59.2425 13.0057 59.4229 12.875 59.5707 12.7045C59.7184 12.5341 59.8235 12.3295 59.886 12.0909H60.8917C60.8349 12.4773 60.6942 12.8253 60.4698 13.1349C60.2482 13.4418 59.9542 13.6861 59.5877 13.8679C59.2241 14.0469 58.8008 14.1364 58.3178 14.1364ZM65.021 14.1364C64.43 14.1364 63.9116 13.9957 63.4656 13.7145C63.0224 13.4332 62.6758 13.0398 62.4258 12.5341C62.1786 12.0284 62.055 11.4375 62.055 10.7614C62.055 10.0795 62.1786 9.48437 62.4258 8.97585C62.6758 8.46733 63.0224 8.07244 63.4656 7.79119C63.9116 7.50994 64.43 7.36932 65.021 7.36932C65.6119 7.36932 66.1289 7.50994 66.5721 7.79119C67.0181 8.07244 67.3647 8.46733 67.6119 8.97585C67.8619 9.48437 67.9869 10.0795 67.9869 10.7614C67.9869 11.4375 67.8619 12.0284 67.6119 12.5341C67.3647 13.0398 67.0181 13.4332 66.5721 13.7145C66.1289 13.9957 65.6119 14.1364 65.021 14.1364ZM65.021 13.233C65.4698 13.233 65.8391 13.1179 66.1289 12.8878C66.4187 12.6577 66.6332 12.3551 66.7724 11.9801C66.9116 11.6051 66.9812 11.1989 66.9812 10.7614C66.9812 10.3239 66.9116 9.91619 66.7724 9.53835C66.6332 9.16051 66.4187 8.85511 66.1289 8.62216C65.8391 8.3892 65.4698 8.27273 65.021 8.27273C64.5721 8.27273 64.2028 8.3892 63.913 8.62216C63.6232 8.85511 63.4087 9.16051 63.2695 9.53835C63.1303 9.91619 63.0607 10.3239 63.0607 10.7614C63.0607 11.1989 63.1303 11.6051 63.2695 11.9801C63.4087 12.3551 63.6232 12.6577 63.913 12.8878C64.2028 13.1179 64.5721 13.233 65.021 13.233ZM69.522 14V7.45455H70.4936V8.44318H70.5618C70.6811 8.11932 70.897 7.85653 71.2095 7.65483C71.522 7.45312 71.8743 7.35227 72.2663 7.35227C72.3402 7.35227 72.4325 7.35369 72.5433 7.35653C72.6541 7.35937 72.7379 7.36364 72.7947 7.36932V8.39205C72.7607 8.38352 72.6825 8.37074 72.5604 8.35369C72.4411 8.33381 72.3146 8.32386 72.1811 8.32386C71.8629 8.32386 71.5788 8.39062 71.3288 8.52415C71.0817 8.65483 70.8857 8.83665 70.7408 9.0696C70.5987 9.29972 70.5277 9.5625 70.5277 9.85795V14H69.522ZM76.532 14.1364C75.9013 14.1364 75.3572 13.9972 74.8999 13.7188C74.4453 13.4375 74.0945 13.0455 73.8473 12.5426C73.603 12.0369 73.4808 11.4489 73.4808 10.7784C73.4808 10.108 73.603 9.51705 73.8473 9.00568C74.0945 8.49148 74.4382 8.09091 74.8786 7.80398C75.3217 7.5142 75.8388 7.36932 76.4297 7.36932C76.7706 7.36932 77.1072 7.42614 77.4396 7.53977C77.772 7.65341 78.0746 7.83807 78.3473 8.09375C78.62 8.34659 78.8374 8.68182 78.9993 9.09943C79.1612 9.51705 79.2422 10.0312 79.2422 10.642V11.0682H74.1967V10.1989H78.2195C78.2195 9.82955 78.1456 9.5 77.9979 9.21023C77.853 8.92045 77.6456 8.69176 77.3757 8.52415C77.1087 8.35653 76.7933 8.27273 76.4297 8.27273C76.0291 8.27273 75.6825 8.37216 75.3899 8.57102C75.1001 8.76705 74.8771 9.02273 74.7209 9.33807C74.5646 9.65341 74.4865 9.99148 74.4865 10.3523V10.9318C74.4865 11.4261 74.5717 11.8452 74.7422 12.1889C74.9155 12.5298 75.1555 12.7898 75.4624 12.9688C75.7692 13.1449 76.1257 13.233 76.532 13.233C76.7962 13.233 77.0348 13.196 77.2479 13.1222C77.4638 13.0455 77.6499 12.9318 77.8061 12.7812C77.9624 12.6278 78.0831 12.4375 78.1683 12.2102L79.1399 12.483C79.0376 12.8125 78.8658 13.1023 78.6243 13.3523C78.3828 13.5994 78.0845 13.7926 77.7294 13.9318C77.3743 14.0682 76.9751 14.1364 76.532 14.1364Z" fill="black"/>
<defs>
<clipPath id="clip0_1_508">
<rect width="16" height="16" fill="white"/>
</clipPath>
</defs>
</svg>
